<?xml version="1.0" encoding="UTF-8"?>
<svg xmlns="http://www.w3.org/2000/svg" xmlns:xlink="http://www.w3.org/1999/xlink" width="2500" height="2500" viewBox="0 0 2500 2500">
<defs>
<radialGradient id="radial-pattern-0" gradientUnits="userSpaceOnUse" cx="0" cy="0" fx="0" fy="0" r="1760.81" gradientTransform="matrix(1, 0, 0, 1, 1250, 1250)">
<stop offset="0" stop-color="rgb(100%, 100%, 100%)" stop-opacity="1"/>
<stop offset="1" stop-color="rgb(100%, 100%, 100%)" stop-opacity="1"/>
</radialGradient>
</defs>


<path fill-rule="nonzero" fill="rgb(13.719177%, 12.156677%, 12.547302%)" fill-opacity="1" d="M 592.355469 1719.019531 L 637.738281 1719.019531 C 636.386719 1738.671875 629.464844 1753.921875 616.972656 1764.761719 C 604.476562 1775.601562 587.558594 1781.019531 566.222656 1781.019531 C 542.3125 1781.019531 523.503906 1774.011719 509.796875 1760 C 496.085938 1745.980469 489.230469 1726.789062 489.230469 1702.410156 C 489.230469 1678.089844 496.019531 1658.910156 509.59375 1644.871094 C 523.167969 1630.820312 541.671875 1623.800781 565.105469 1623.800781 C 586.714844 1623.800781 603.71875 1629.011719 616.113281 1639.449219 C 628.503906 1649.878906 635.441406 1664.789062 636.929688 1684.171875 L 591.039062 1684.171875 C 590.363281 1676.539062 587.898438 1670.78125 583.644531 1666.898438 C 579.390625 1663.019531 573.414062 1661.070312 565.714844 1661.070312 C 556.324219 1661.070312 549.285156 1664.5 544.59375 1671.359375 C 539.898438 1678.210938 537.550781 1688.558594 537.550781 1702.410156 C 537.550781 1715.980469 540.050781 1726.25 545.046875 1733.199219 C 550.046875 1740.160156 557.371094 1743.640625 567.03125 1743.640625 C 574.460938 1743.640625 580.351562 1741.511719 584.707031 1737.25 C 589.0625 1733 591.613281 1726.921875 592.355469 1719.019531 "/>
<path fill-rule="nonzero" fill="rgb(13.719177%, 12.156677%, 12.547302%)" fill-opacity="1" d="M 694.0625 1721.648438 C 694.0625 1731.851562 695.464844 1739.179688 698.265625 1743.640625 C 701.070312 1748.089844 705.679688 1750.320312 712.09375 1750.320312 C 718.511719 1750.320312 723.152344 1748.078125 726.023438 1743.589844 C 728.894531 1739.101562 730.328125 1731.78125 730.328125 1721.648438 C 730.328125 1711.589844 728.894531 1704.351562 726.023438 1699.921875 C 723.152344 1695.5 718.511719 1693.289062 712.09375 1693.289062 C 705.679688 1693.289062 701.070312 1695.480469 698.265625 1699.871094 C 695.464844 1704.261719 694.0625 1711.519531 694.0625 1721.648438 Z M 649.792969 1721.648438 C 649.792969 1703.421875 655.332031 1689.050781 666.40625 1678.550781 C 677.484375 1668.050781 692.710938 1662.800781 712.09375 1662.800781 C 731.476562 1662.800781 746.691406 1668.050781 757.730469 1678.550781 C 768.773438 1689.050781 774.296875 1703.421875 774.296875 1721.648438 C 774.296875 1740.019531 768.757812 1754.480469 757.679688 1765.011719 C 746.605469 1775.550781 731.410156 1780.808594 712.09375 1780.808594 C 692.777344 1780.808594 677.566406 1775.550781 666.460938 1765.011719 C 655.347656 1754.480469 649.792969 1740.019531 649.792969 1721.648438 "/>
<path fill-rule="nonzero" fill="rgb(13.719177%, 12.156677%, 12.547302%)" fill-opacity="1" d="M 792.226562 1776.859375 L 792.226562 1666.75 L 832.035156 1666.75 L 832.035156 1682.851562 C 836.898438 1676.371094 842.371094 1671.578125 848.449219 1668.46875 C 854.527344 1665.359375 861.515625 1663.808594 869.417969 1663.808594 C 876.644531 1663.808594 882.871094 1665.328125 888.105469 1668.371094 C 893.339844 1671.410156 898.015625 1676.238281 902.136719 1682.851562 C 907.472656 1676.238281 913.3125 1671.378906 919.664062 1668.269531 C 926.011719 1665.160156 933.167969 1663.609375 941.140625 1663.609375 C 954.105469 1663.609375 964.167969 1666.949219 971.328125 1673.640625 C 978.484375 1680.320312 982.066406 1689.710938 982.066406 1701.800781 L 982.066406 1776.859375 L 938.910156 1776.859375 L 938.910156 1717.910156 C 938.910156 1711.019531 937.746094 1706.019531 935.414062 1702.910156 C 933.085938 1699.808594 929.320312 1698.25 924.121094 1698.25 C 918.785156 1698.25 914.867188 1699.871094 912.367188 1703.121094 C 909.871094 1706.359375 908.621094 1711.421875 908.621094 1718.308594 L 908.621094 1776.859375 L 865.667969 1776.859375 L 865.667969 1719.421875 C 865.667969 1711.859375 864.46875 1706.441406 862.074219 1703.171875 C 859.675781 1699.890625 855.742188 1698.25 850.269531 1698.25 C 845.40625 1698.25 841.710938 1699.910156 839.179688 1703.21875 C 836.644531 1706.53125 835.378906 1711.359375 835.378906 1717.699219 L 835.378906 1776.859375 L 792.226562 1776.859375 "/>
<path fill-rule="nonzero" fill="rgb(13.719177%, 12.156677%, 12.547302%)" fill-opacity="1" d="M 1083.46875 1722.058594 C 1083.46875 1713.421875 1082.019531 1707 1079.109375 1702.808594 C 1076.210938 1698.628906 1071.78125 1696.53125 1065.839844 1696.53125 C 1059.421875 1696.53125 1054.75 1698.570312 1051.808594 1702.660156 C 1048.871094 1706.75 1047.398438 1713.210938 1047.398438 1722.058594 C 1047.398438 1730.371094 1048.910156 1736.601562 1051.910156 1740.75 C 1054.921875 1744.898438 1059.421875 1746.980469 1065.441406 1746.980469 C 1071.378906 1746.980469 1075.871094 1744.890625 1078.910156 1740.699219 C 1081.949219 1736.511719 1083.46875 1730.300781 1083.46875 1722.058594 Z M 1004.859375 1821.03125 L 1004.859375 1666.75 L 1043.660156 1666.75 L 1043.660156 1680.828125 C 1047.980469 1674.949219 1053.011719 1670.648438 1058.75 1667.910156 C 1064.488281 1665.179688 1071.351562 1663.808594 1079.308594 1663.808594 C 1093.558594 1663.808594 1105.109375 1669.160156 1113.960938 1679.871094 C 1122.808594 1690.570312 1127.230469 1704.628906 1127.230469 1722.058594 C 1127.230469 1739.890625 1122.820312 1754.101562 1114.011719 1764.710938 C 1105.199219 1775.308594 1093.359375 1780.609375 1078.5 1780.609375 C 1071.679688 1780.609375 1065.738281 1779.460938 1060.679688 1777.171875 C 1055.609375 1774.871094 1051.191406 1771.328125 1047.398438 1766.53125 L 1047.398438 1821.03125 L 1004.859375 1821.03125 "/>
<path fill-rule="nonzero" fill="rgb(13.719177%, 12.156677%, 12.547302%)" fill-opacity="1" d="M 1219.410156 1727.730469 C 1215.230469 1729.351562 1209.660156 1731.070312 1202.699219 1732.898438 C 1191.761719 1735.800781 1186.289062 1739.691406 1186.289062 1744.550781 C 1186.289062 1747.648438 1187.371094 1750.089844 1189.53125 1751.839844 C 1191.691406 1753.601562 1194.761719 1754.480469 1198.75 1754.480469 C 1206.039062 1754.480469 1211.359375 1752.789062 1214.699219 1749.410156 C 1218.050781 1746.03125 1219.71875 1740.660156 1219.71875 1733.300781 C 1219.71875 1731.75 1219.699219 1730.589844 1219.671875 1729.808594 C 1219.628906 1729.03125 1219.550781 1728.339844 1219.410156 1727.730469 Z M 1223.46875 1776.859375 L 1220.730469 1766.328125 C 1215.128906 1771.261719 1209.078125 1774.910156 1202.601562 1777.269531 C 1196.121094 1779.628906 1188.820312 1780.808594 1180.71875 1780.808594 C 1168.289062 1780.808594 1158.679688 1777.761719 1151.898438 1771.648438 C 1145.109375 1765.53125 1141.71875 1756.910156 1141.71875 1745.761719 C 1141.71875 1734.890625 1145.058594 1726.851562 1151.75 1721.648438 C 1158.429688 1716.449219 1171.058594 1712.671875 1189.628906 1710.308594 C 1192 1709.96875 1195.171875 1709.601562 1199.160156 1709.191406 C 1213 1707.710938 1219.921875 1704.128906 1219.921875 1698.460938 C 1219.921875 1695.28125 1218.660156 1692.96875 1216.121094 1691.519531 C 1213.589844 1690.070312 1209.589844 1689.339844 1204.121094 1689.339844 C 1199.589844 1689.339844 1196.121094 1690.230469 1193.691406 1692.019531 C 1191.25 1693.808594 1189.828125 1696.570312 1189.429688 1700.28125 L 1146.679688 1700.28125 C 1146.878906 1687.921875 1151.949219 1678.578125 1161.878906 1672.269531 C 1171.800781 1665.960938 1186.390625 1662.800781 1205.640625 1662.800781 C 1214.691406 1662.800781 1223.039062 1663.640625 1230.710938 1665.328125 C 1238.378906 1667.019531 1244.339844 1669.28125 1248.589844 1672.121094 C 1253.789062 1675.628906 1257.441406 1679.601562 1259.53125 1684.019531 C 1261.621094 1688.441406 1262.671875 1694.78125 1262.671875 1703.011719 L 1262.671875 1764.398438 C 1262.671875 1766.429688 1263.078125 1768.238281 1263.890625 1769.820312 C 1264.699219 1771.410156 1265.878906 1772.710938 1267.429688 1773.71875 L 1267.429688 1776.859375 L 1223.46875 1776.859375 "/>
<path fill-rule="nonzero" fill="rgb(13.719177%, 12.156677%, 12.547302%)" fill-opacity="1" d="M 1288 1776.859375 L 1288 1666.75 L 1327.808594 1666.75 L 1327.808594 1682.851562 C 1332.941406 1676.441406 1338.660156 1671.660156 1344.980469 1668.519531 C 1351.289062 1665.378906 1358.429688 1663.808594 1366.398438 1663.808594 C 1373.089844 1663.808594 1379.070312 1664.921875 1384.328125 1667.148438 C 1389.601562 1669.378906 1394.058594 1672.691406 1397.710938 1677.078125 C 1401.011719 1681.070312 1403.359375 1685.910156 1404.75 1691.621094 C 1406.128906 1697.328125 1406.820312 1706.660156 1406.820312 1719.628906 L 1406.820312 1776.859375 L 1363.058594 1776.859375 L 1363.058594 1719.828125 C 1363.058594 1711.460938 1361.949219 1705.699219 1359.71875 1702.558594 C 1357.488281 1699.421875 1353.640625 1697.851562 1348.171875 1697.851562 C 1342.628906 1697.851562 1338.511719 1699.671875 1335.808594 1703.320312 C 1333.109375 1706.96875 1331.761719 1712.539062 1331.761719 1720.03125 L 1331.761719 1776.859375 L 1288 1776.859375 "/>
<path fill-rule="nonzero" fill="rgb(13.719177%, 12.156677%, 12.547302%)" fill-opacity="1" d="M 1431.339844 1820.21875 L 1431.339844 1787.601562 L 1443.800781 1787.601562 C 1448.050781 1787.601562 1451.128906 1786.871094 1453.019531 1785.421875 C 1454.910156 1783.96875 1455.851562 1781.589844 1455.851562 1778.28125 C 1455.851562 1776.859375 1455.671875 1775.28125 1455.300781 1773.519531 C 1454.921875 1771.769531 1454.328125 1769.769531 1453.519531 1767.539062 L 1416.648438 1666.75 L 1461.019531 1666.75 L 1480.269531 1733.511719 L 1499.011719 1666.75 L 1540.238281 1666.75 L 1504.578125 1776.261719 C 1500.53125 1788.550781 1497.398438 1796.96875 1495.210938 1801.53125 C 1493.019531 1806.089844 1490.671875 1809.550781 1488.171875 1811.910156 C 1484.859375 1815.21875 1480.878906 1817.570312 1476.21875 1818.949219 C 1471.558594 1820.339844 1463.988281 1821.03125 1453.519531 1821.03125 C 1450.480469 1821.03125 1447.070312 1820.960938 1443.289062 1820.828125 C 1439.511719 1820.691406 1435.53125 1820.488281 1431.339844 1820.21875 "/>
<path fill-rule="nonzero" fill="rgb(13.719177%, 12.156677%, 12.547302%)" fill-opacity="1" d="M 1552.5 1776.859375 L 1552.5 1627.648438 L 1596.660156 1627.648438 L 1596.660156 1776.859375 L 1552.5 1776.859375 "/>
<path fill-rule="nonzero" fill="rgb(13.719177%, 12.156677%, 12.547302%)" fill-opacity="1" d="M 1659.980469 1721.648438 C 1659.980469 1731.851562 1661.378906 1739.179688 1664.179688 1743.640625 C 1666.980469 1748.089844 1671.589844 1750.320312 1678.011719 1750.320312 C 1684.421875 1750.320312 1689.070312 1748.078125 1691.941406 1743.589844 C 1694.808594 1739.101562 1696.238281 1731.78125 1696.238281 1721.648438 C 1696.238281 1711.589844 1694.808594 1704.351562 1691.941406 1699.921875 C 1689.070312 1695.5 1684.421875 1693.289062 1678.011719 1693.289062 C 1671.589844 1693.289062 1666.980469 1695.480469 1664.179688 1699.871094 C 1661.378906 1704.261719 1659.980469 1711.519531 1659.980469 1721.648438 Z M 1615.710938 1721.648438 C 1615.710938 1703.421875 1621.238281 1689.050781 1632.320312 1678.550781 C 1643.398438 1668.050781 1658.628906 1662.800781 1678.011719 1662.800781 C 1697.390625 1662.800781 1712.601562 1668.050781 1723.640625 1678.550781 C 1734.691406 1689.050781 1740.210938 1703.421875 1740.210938 1721.648438 C 1740.210938 1740.019531 1734.671875 1754.480469 1723.589844 1765.011719 C 1712.519531 1775.550781 1697.320312 1780.808594 1678.011719 1780.808594 C 1658.691406 1780.808594 1643.480469 1775.550781 1632.371094 1765.011719 C 1621.261719 1754.480469 1615.710938 1740.019531 1615.710938 1721.648438 "/>
<path fill-rule="nonzero" fill="rgb(13.719177%, 12.156677%, 12.547302%)" fill-opacity="1" d="M 1796.53125 1721.050781 C 1796.53125 1729.890625 1797.980469 1736.460938 1800.890625 1740.75 C 1803.789062 1745.039062 1808.210938 1747.179688 1814.160156 1747.179688 C 1820.441406 1747.179688 1825.078125 1745.089844 1828.089844 1740.898438 C 1831.089844 1736.710938 1832.601562 1730.160156 1832.601562 1721.25 C 1832.601562 1713.28125 1830.988281 1707.101562 1827.78125 1702.710938 C 1824.578125 1698.320312 1820.03125 1696.128906 1814.160156 1696.128906 C 1808.210938 1696.128906 1803.789062 1698.199219 1800.890625 1702.359375 C 1797.980469 1706.511719 1796.53125 1712.738281 1796.53125 1721.050781 Z M 1760.171875 1788.71875 L 1803.519531 1788.71875 C 1804.058594 1791.351562 1805.328125 1793.238281 1807.320312 1794.390625 C 1809.308594 1795.539062 1812.339844 1796.109375 1816.390625 1796.109375 C 1822.800781 1796.109375 1827.140625 1794.691406 1829.410156 1791.859375 C 1831.671875 1789.019531 1832.800781 1782.769531 1832.800781 1773.121094 L 1832.800781 1767.140625 C 1829.078125 1770.71875 1824.679688 1773.398438 1819.578125 1775.191406 C 1814.480469 1776.980469 1808.648438 1777.878906 1802.101562 1777.878906 C 1787.25 1777.878906 1775.339844 1772.800781 1766.390625 1762.628906 C 1757.449219 1752.46875 1752.96875 1738.941406 1752.96875 1722.058594 C 1752.96875 1704.300781 1757.238281 1690.148438 1765.789062 1679.609375 C 1774.328125 1669.078125 1785.730469 1663.808594 1799.980469 1663.808594 C 1807.941406 1663.808594 1814.878906 1665.210938 1820.789062 1668.011719 C 1826.699219 1670.820312 1831.820312 1675.160156 1836.140625 1681.03125 L 1836.140625 1666.75 L 1874.941406 1666.75 L 1874.941406 1768.351562 C 1874.941406 1787.53125 1870.25 1801.140625 1860.859375 1809.179688 C 1851.46875 1817.210938 1835.628906 1821.230469 1813.351562 1821.230469 C 1797.878906 1821.230469 1785.519531 1818.398438 1776.269531 1812.71875 C 1767.019531 1807.050781 1761.648438 1799.050781 1760.171875 1788.71875 "/>
<path fill-rule="nonzero" fill="rgb(13.719177%, 12.156677%, 12.547302%)" fill-opacity="1" d="M 1936.941406 1721.648438 C 1936.941406 1731.851562 1938.339844 1739.179688 1941.140625 1743.640625 C 1943.941406 1748.089844 1948.550781 1750.320312 1954.96875 1750.320312 C 1961.378906 1750.320312 1966.03125 1748.078125 1968.898438 1743.589844 C 1971.769531 1739.101562 1973.199219 1731.78125 1973.199219 1721.648438 C 1973.199219 1711.589844 1971.769531 1704.351562 1968.898438 1699.921875 C 1966.03125 1695.5 1961.378906 1693.289062 1954.96875 1693.289062 C 1948.550781 1693.289062 1943.941406 1695.480469 1941.140625 1699.871094 C 1938.339844 1704.261719 1936.941406 1711.519531 1936.941406 1721.648438 Z M 1892.671875 1721.648438 C 1892.671875 1703.421875 1898.199219 1689.050781 1909.28125 1678.550781 C 1920.359375 1668.050781 1935.578125 1662.800781 1954.96875 1662.800781 C 1974.351562 1662.800781 1989.558594 1668.050781 2000.601562 1678.550781 C 2011.648438 1689.050781 2017.171875 1703.421875 2017.171875 1721.648438 C 2017.171875 1740.019531 2011.628906 1754.480469 2000.550781 1765.011719 C 1989.480469 1775.550781 1974.28125 1780.808594 1954.96875 1780.808594 C 1935.648438 1780.808594 1920.441406 1775.550781 1909.328125 1765.011719 C 1898.21875 1754.480469 1892.671875 1740.019531 1892.671875 1721.648438 "/>
<path fill-rule="nonzero" fill="rgb(13.719177%, 12.156677%, 12.547302%)" fill-opacity="1" d="M 504.152344 1944.839844 L 504.152344 1916.210938 L 482.832031 1877.378906 L 492.742188 1877.378906 L 502.25 1895.988281 C 504.851562 1901.101562 506.855469 1905.199219 508.957031 1909.910156 L 509.15625 1909.910156 C 511.058594 1905.5 513.359375 1901.101562 515.964844 1895.988281 L 525.671875 1877.378906 L 535.582031 1877.378906 L 512.960938 1916.109375 L 512.960938 1944.839844 L 504.152344 1944.839844 "/>
<path fill-rule="nonzero" fill="rgb(13.719177%, 12.156677%, 12.547302%)" fill-opacity="1" d="M 569.8125 1911.511719 C 569.8125 1925.921875 577.617188 1938.828125 591.332031 1938.828125 C 605.144531 1938.828125 612.953125 1926.121094 612.953125 1910.808594 C 612.953125 1897.398438 605.945312 1883.378906 591.433594 1883.378906 C 577.019531 1883.378906 569.8125 1896.699219 569.8125 1911.511719 Z M 622.160156 1910.410156 C 622.160156 1933.628906 608.046875 1945.941406 590.832031 1945.941406 C 573.015625 1945.941406 560.503906 1932.128906 560.503906 1911.710938 C 560.503906 1890.289062 573.816406 1876.28125 591.832031 1876.28125 C 610.25 1876.28125 622.160156 1890.390625 622.160156 1910.410156 "/>
<path fill-rule="nonzero" fill="rgb(13.719177%, 12.156677%, 12.547302%)" fill-opacity="1" d="M 663.398438 1877.378906 L 663.398438 1917.308594 C 663.398438 1932.429688 670.105469 1938.828125 679.113281 1938.828125 C 689.121094 1938.828125 695.527344 1932.230469 695.527344 1917.308594 L 695.527344 1877.378906 L 704.335938 1877.378906 L 704.335938 1916.710938 C 704.335938 1937.429688 693.425781 1945.941406 678.8125 1945.941406 C 665 1945.941406 654.589844 1938.03125 654.589844 1917.109375 L 654.589844 1877.378906 L 663.398438 1877.378906 "/>
<path fill-rule="nonzero" fill="rgb(13.719177%, 12.156677%, 12.547302%)" fill-opacity="1" d="M 749.375 1909.011719 L 758.285156 1909.011719 C 767.59375 1909.011719 773.5 1903.898438 773.5 1896.199219 C 773.5 1887.488281 767.191406 1883.679688 757.984375 1883.578125 C 753.78125 1883.578125 750.777344 1883.980469 749.375 1884.378906 Z M 740.667969 1878.28125 C 745.074219 1877.378906 751.378906 1876.878906 757.382812 1876.878906 C 766.691406 1876.878906 772.699219 1878.578125 776.902344 1882.378906 C 780.304688 1885.378906 782.207031 1889.988281 782.207031 1895.191406 C 782.207031 1904.101562 776.601562 1910.011719 769.496094 1912.410156 L 769.496094 1912.710938 C 774.699219 1914.511719 777.800781 1919.320312 779.402344 1926.320312 C 781.605469 1935.730469 783.207031 1942.238281 784.609375 1944.839844 L 775.601562 1944.839844 C 774.5 1942.941406 772.996094 1937.128906 771.097656 1928.730469 C 769.09375 1919.421875 765.492188 1915.910156 757.585938 1915.609375 L 749.375 1915.609375 L 749.375 1944.839844 L 740.667969 1944.839844 L 740.667969 1878.28125 "/>
<path fill-rule="nonzero" fill="rgb(13.719177%, 12.156677%, 12.547302%)" fill-opacity="1" d="M 866.882812 1884.78125 L 846.363281 1884.78125 L 846.363281 1877.378906 L 896.3125 1877.378906 L 896.3125 1884.78125 L 875.691406 1884.78125 L 875.691406 1944.839844 L 866.882812 1944.839844 L 866.882812 1884.78125 "/>
<path fill-rule="nonzero" fill="rgb(13.719177%, 12.156677%, 12.547302%)" fill-opacity="1" d="M 958.066406 1916.808594 L 951.460938 1897.398438 C 949.960938 1892.988281 948.960938 1888.988281 947.960938 1885.078125 L 947.757812 1885.078125 C 946.757812 1889.089844 945.65625 1893.191406 944.355469 1897.300781 L 937.75 1916.808594 Z M 935.949219 1923.621094 L 928.941406 1944.839844 L 919.933594 1944.839844 L 942.855469 1877.378906 L 953.363281 1877.378906 L 976.386719 1944.839844 L 967.074219 1944.839844 L 959.871094 1923.621094 L 935.949219 1923.621094 "/>
<path fill-rule="nonzero" fill="rgb(13.719177%, 12.156677%, 12.547302%)" fill-opacity="1" d="M 1058.859375 1941.839844 C 1054.960938 1943.238281 1047.25 1945.539062 1038.140625 1945.539062 C 1027.929688 1945.539062 1019.519531 1942.941406 1012.921875 1936.628906 C 1007.109375 1931.03125 1003.511719 1922.019531 1003.511719 1911.511719 C 1003.609375 1891.390625 1017.421875 1876.679688 1040.039062 1876.679688 C 1047.851562 1876.679688 1053.960938 1878.378906 1056.859375 1879.78125 L 1054.761719 1886.890625 C 1051.148438 1885.289062 1046.648438 1883.980469 1039.839844 1883.980469 C 1023.429688 1883.980469 1012.71875 1894.191406 1012.71875 1911.109375 C 1012.71875 1928.21875 1023.03125 1938.328125 1038.738281 1938.328125 C 1044.449219 1938.328125 1048.351562 1937.53125 1050.351562 1936.53125 L 1050.351562 1916.410156 L 1036.640625 1916.410156 L 1036.640625 1909.410156 L 1058.859375 1909.410156 L 1058.859375 1941.839844 "/>
<path fill-rule="nonzero" fill="rgb(13.719177%, 12.156677%, 12.547302%)" fill-opacity="1" d="M 1093.390625 1877.378906 L 1102.101562 1877.378906 L 1102.101562 1937.53125 L 1130.929688 1937.53125 L 1130.929688 1944.839844 L 1093.390625 1944.839844 L 1093.390625 1877.378906 "/>
<path fill-rule="nonzero" fill="rgb(13.719177%, 12.156677%, 12.547302%)" fill-opacity="1" d="M 1170.558594 1877.378906 L 1170.558594 1944.839844 L 1161.851562 1944.839844 L 1161.851562 1877.378906 L 1170.558594 1877.378906 "/>
<path fill-rule="nonzero" fill="rgb(13.719177%, 12.156677%, 12.547302%)" fill-opacity="1" d="M 1207 1944.839844 L 1207 1877.378906 L 1216.5 1877.378906 L 1238.121094 1911.511719 C 1243.128906 1919.421875 1247.03125 1926.519531 1250.238281 1933.429688 L 1250.441406 1933.328125 C 1249.640625 1924.320312 1249.429688 1916.109375 1249.429688 1905.601562 L 1249.429688 1877.378906 L 1257.640625 1877.378906 L 1257.640625 1944.839844 L 1248.828125 1944.839844 L 1227.410156 1910.609375 C 1222.710938 1903.101562 1218.210938 1895.390625 1214.800781 1888.089844 L 1214.5 1888.191406 C 1215 1896.699219 1215.199219 1904.800781 1215.199219 1916.011719 L 1215.199219 1944.839844 L 1207 1944.839844 "/>
<path fill-rule="nonzero" fill="rgb(13.719177%, 12.156677%, 12.547302%)" fill-opacity="1" d="M 1329.011719 1913.210938 L 1302.78125 1913.210938 L 1302.78125 1937.53125 L 1332.011719 1937.53125 L 1332.011719 1944.839844 L 1294.078125 1944.839844 L 1294.078125 1877.378906 L 1330.511719 1877.378906 L 1330.511719 1884.691406 L 1302.78125 1884.691406 L 1302.78125 1906 L 1329.011719 1906 L 1329.011719 1913.210938 "/>
<path fill-rule="nonzero" fill="rgb(13.719177%, 12.156677%, 12.547302%)" fill-opacity="1" d="M 1458.320312 1941.839844 C 1454.421875 1943.238281 1446.710938 1945.539062 1437.609375 1945.539062 C 1427.398438 1945.539062 1418.988281 1942.941406 1412.378906 1936.628906 C 1406.578125 1931.03125 1402.96875 1922.019531 1402.96875 1911.511719 C 1403.070312 1891.390625 1416.890625 1876.679688 1439.511719 1876.679688 C 1447.308594 1876.679688 1453.421875 1878.378906 1456.320312 1879.78125 L 1454.21875 1886.890625 C 1450.621094 1885.289062 1446.109375 1883.980469 1439.308594 1883.980469 C 1422.890625 1883.980469 1412.179688 1894.191406 1412.179688 1911.109375 C 1412.179688 1928.21875 1422.488281 1938.328125 1438.210938 1938.328125 C 1443.910156 1938.328125 1447.808594 1937.53125 1449.820312 1936.53125 L 1449.820312 1916.410156 L 1436.101562 1916.410156 L 1436.101562 1909.410156 L 1458.320312 1909.410156 L 1458.320312 1941.839844 "/>
<path fill-rule="nonzero" fill="rgb(13.719177%, 12.156677%, 12.547302%)" fill-opacity="1" d="M 1498.160156 1911.511719 C 1498.160156 1925.921875 1505.96875 1938.828125 1519.679688 1938.828125 C 1533.488281 1938.828125 1541.300781 1926.121094 1541.300781 1910.808594 C 1541.300781 1897.398438 1534.300781 1883.378906 1519.78125 1883.378906 C 1505.371094 1883.378906 1498.160156 1896.699219 1498.160156 1911.511719 Z M 1550.511719 1910.410156 C 1550.511719 1933.628906 1536.398438 1945.941406 1519.179688 1945.941406 C 1501.359375 1945.941406 1488.851562 1932.128906 1488.851562 1911.710938 C 1488.851562 1890.289062 1502.171875 1876.28125 1520.179688 1876.28125 C 1538.601562 1876.28125 1550.511719 1890.390625 1550.511719 1910.410156 "/>
<path fill-rule="nonzero" fill="rgb(13.719177%, 12.156677%, 12.547302%)" fill-opacity="1" d="M 1617.96875 1913.210938 L 1591.75 1913.210938 L 1591.75 1937.53125 L 1620.96875 1937.53125 L 1620.96875 1944.839844 L 1583.039062 1944.839844 L 1583.039062 1877.378906 L 1619.46875 1877.378906 L 1619.46875 1884.691406 L 1591.75 1884.691406 L 1591.75 1906 L 1617.96875 1906 L 1617.96875 1913.210938 "/>
<path fill-rule="nonzero" fill="rgb(13.719177%, 12.156677%, 12.547302%)" fill-opacity="1" d="M 1652.300781 1934.230469 C 1656.210938 1936.628906 1661.910156 1938.628906 1667.921875 1938.628906 C 1676.828125 1938.628906 1682.03125 1933.929688 1682.03125 1927.121094 C 1682.03125 1920.820312 1678.429688 1917.210938 1669.320312 1913.710938 C 1658.308594 1909.808594 1651.5 1904.101562 1651.5 1894.589844 C 1651.5 1884.078125 1660.210938 1876.28125 1673.320312 1876.28125 C 1680.230469 1876.28125 1685.230469 1877.878906 1688.238281 1879.578125 L 1685.828125 1886.691406 C 1683.628906 1885.488281 1679.128906 1883.480469 1673.019531 1883.480469 C 1663.808594 1883.480469 1660.308594 1888.988281 1660.308594 1893.589844 C 1660.308594 1899.898438 1664.410156 1903 1673.71875 1906.601562 C 1685.128906 1911.011719 1690.941406 1916.511719 1690.941406 1926.421875 C 1690.941406 1936.828125 1683.230469 1945.839844 1667.320312 1945.839844 C 1660.808594 1945.839844 1653.699219 1943.941406 1650.101562 1941.539062 L 1652.300781 1934.230469 "/>
<path fill-rule="nonzero" fill="rgb(13.719177%, 12.156677%, 12.547302%)" fill-opacity="1" d="M 1754 1877.378906 L 1754 1905.601562 L 1786.628906 1905.601562 L 1786.628906 1877.378906 L 1795.429688 1877.378906 L 1795.429688 1944.839844 L 1786.628906 1944.839844 L 1786.628906 1913.210938 L 1754 1913.210938 L 1754 1944.839844 L 1745.289062 1944.839844 L 1745.289062 1877.378906 L 1754 1877.378906 "/>
<path fill-rule="nonzero" fill="rgb(13.719177%, 12.156677%, 12.547302%)" fill-opacity="1" d="M 1866.699219 1913.210938 L 1840.46875 1913.210938 L 1840.46875 1937.53125 L 1869.699219 1937.53125 L 1869.699219 1944.839844 L 1831.769531 1944.839844 L 1831.769531 1877.378906 L 1868.199219 1877.378906 L 1868.199219 1884.691406 L 1840.46875 1884.691406 L 1840.46875 1906 L 1866.699219 1906 L 1866.699219 1913.210938 "/>
<path fill-rule="nonzero" fill="rgb(13.719177%, 12.156677%, 12.547302%)" fill-opacity="1" d="M 1910.941406 1909.011719 L 1919.851562 1909.011719 C 1929.160156 1909.011719 1935.058594 1903.898438 1935.058594 1896.199219 C 1935.058594 1887.488281 1928.761719 1883.679688 1919.550781 1883.578125 C 1915.339844 1883.578125 1912.339844 1883.980469 1910.941406 1884.378906 Z M 1902.230469 1878.28125 C 1906.628906 1877.378906 1912.941406 1876.878906 1918.949219 1876.878906 C 1928.25 1876.878906 1934.261719 1878.578125 1938.460938 1882.378906 C 1941.871094 1885.378906 1943.769531 1889.988281 1943.769531 1895.191406 C 1943.769531 1904.101562 1938.160156 1910.011719 1931.058594 1912.410156 L 1931.058594 1912.710938 C 1936.261719 1914.511719 1939.359375 1919.320312 1940.96875 1926.320312 C 1943.171875 1935.730469 1944.769531 1942.238281 1946.171875 1944.839844 L 1937.160156 1944.839844 C 1936.058594 1942.941406 1934.558594 1937.128906 1932.660156 1928.730469 C 1930.660156 1919.421875 1927.050781 1915.910156 1919.148438 1915.609375 L 1910.941406 1915.609375 L 1910.941406 1944.839844 L 1902.230469 1944.839844 L 1902.230469 1878.28125 "/>
<path fill-rule="nonzero" fill="rgb(13.719177%, 12.156677%, 12.547302%)" fill-opacity="1" d="M 2012.230469 1913.210938 L 1986.011719 1913.210938 L 1986.011719 1937.53125 L 2015.230469 1937.53125 L 2015.230469 1944.839844 L 1977.300781 1944.839844 L 1977.300781 1877.378906 L 2013.730469 1877.378906 L 2013.730469 1884.691406 L 1986.011719 1884.691406 L 1986.011719 1906 L 2012.230469 1906 L 2012.230469 1913.210938 "/>
<path fill-rule="nonzero" fill="rgb(13.719177%, 12.156677%, 12.547302%)" fill-opacity="1" d="M 1233.828125 941.710938 C 1311.648438 918.078125 1389.710938 895.371094 1467.398438 871.429688 C 1533.210938 851.089844 1588.871094 800.878906 1615.660156 737.378906 C 1638.351562 685.789062 1640.519531 626.621094 1625.289062 572.628906 C 1547.328125 596.300781 1469.089844 619.03125 1391.25 643.128906 C 1324.921875 663.898438 1268.609375 714.921875 1242.429688 779.429688 C 1220.609375 830.410156 1218.761719 888.601562 1233.828125 941.710938 "/>
<path fill-rule="nonzero" fill="rgb(13.719177%, 12.156677%, 12.547302%)" fill-opacity="1" d="M 1689.191406 1434.160156 C 1681.761719 1411.738281 1651.148438 1415.921875 1637.460938 1394.851562 C 1588.519531 1328.878906 1581.46875 1244.390625 1555.828125 1168.769531 C 1540.179688 1122.539062 1509.289062 1081.25 1467.839844 1055.191406 C 1435.78125 1035.558594 1399.21875 1023.570312 1362.441406 1019.738281 C 1337.921875 1017.191406 1305.878906 1018.101562 1287.5 1021.71875 C 1275.371094 1024.109375 1240.121094 1032.230469 1229.019531 1037.730469 C 1220.738281 1043.308594 1224.140625 1052.160156 1229.179688 1058.53125 C 1238.519531 1070.328125 1255.5 1065.648438 1268.609375 1073.878906 C 1282.941406 1084.699219 1292.648438 1100.25 1301.511719 1115.539062 C 1345.089844 1192.171875 1346.199219 1284.890625 1389.558594 1361.628906 C 1417.789062 1410.929688 1468.898438 1444.46875 1524.039062 1455.941406 C 1575.730469 1466.710938 1630.5 1466.390625 1681.398438 1451.738281 C 1692.011719 1450.359375 1692.03125 1442.738281 1689.191406 1434.160156 "/>
<path fill-rule="nonzero" fill="rgb(13.719177%, 12.156677%, 12.547302%)" fill-opacity="1" d="M 809.210938 1482.519531 L 830.914062 1482.519531 C 1013.378906 1482.519531 1161.300781 1334.601562 1161.300781 1152.140625 L 1161.300781 822.949219 C 1161.300781 674.449219 1040.921875 554.058594 892.410156 554.058594 L 809.210938 554.058594 C 809.210938 554.058594 876.734375 725.28125 864.675781 1018.289062 C 850.640625 1359.320312 809.210938 1482.519531 809.210938 1482.519531 "/>
</svg>
